<svg aria-hidden="true" style="position:absolute;width:0;height:0" xmlns="http://www.w3.org/2000/svg" overflow="hidden"><defs><symbol id="icon-alarm" viewBox="0 0 33 32"><path d="M31.732 9.81c-1.635-3.815-4.694-6.875-8.509-8.509C24.255.489 25.554 0 26.969 0c3.349 0 6.063 2.715 6.063 6.063 0 1.415-.488 2.714-1.301 3.746zm-.248 6.706c0 3.976-1.561 7.58-4.091 10.261l2.094 2.093c.277.278.448.66.448 1.083 0 .845-.685 1.531-1.531 1.531-.423 0-.806-.171-1.083-.449l-2.248-2.248c-2.427 1.695-5.373 2.697-8.557 2.697-3.178 0-6.119-.997-8.543-2.687L5.74 31.03c-.281.281-.668.454-1.095.454-.855 0-1.548-.694-1.548-1.549 0-.426.173-.814.453-1.094l2.077-2.077c-2.522-2.679-4.078-6.278-4.078-10.247 0-8.266 6.701-14.968 14.968-14.968S31.485 8.25 31.485 16.517zM16.516 4.645c-6.556 0-11.871 5.314-11.871 11.871 0 6.556 5.315 11.871 11.871 11.871s11.871-5.315 11.871-11.871c0-6.557-5.315-11.871-11.871-11.871zm6.194 13.42h-6.194c-.855 0-1.548-.694-1.548-1.548V8.259c0-.855.694-1.548 1.548-1.548s1.548.694 1.548 1.548v6.709h4.645c.855 0 1.548.694 1.548 1.549s-.694 1.548-1.548 1.548zM1.329 10.018C.499 8.965 0 7.639 0 6.193 0 2.772 2.773-.001 6.194-.001c1.445 0 2.772.499 3.826 1.329-3.897 1.669-7.021 4.794-8.691 8.69z"/></symbol><symbol id="icon-backet" viewBox="0 0 32 32"><path d="M31.513 9.179h.002l-4.4 9.778c-.217.482-.686.825-1.239.862l-12.672.844.732 2.091h13.797c1.62 0 2.933 1.314 2.933 2.935 0 1.62-1.314 2.933-2.933 2.933S24.8 27.308 24.8 25.689H11.111c0 1.62-1.314 2.933-2.933 2.933s-2.933-1.314-2.933-2.933c0-1.621 1.314-2.935 2.933-2.935h2.651L5.183 6.622h-3.36c-.811 0-1.467-.658-1.467-1.467 0-.811.656-1.467 1.467-1.467h4.4c.64 0 1.179.412 1.38.983l.005-.002.853 2.441h21.717c.811 0 1.467.656 1.467 1.467 0 .213-.048.416-.132.601zm-22.025.865l2.711 7.746 12.603-.841 3.108-6.905H9.489z"/></symbol><symbol id="icon-book" viewBox="0 0 32 32"><path d="M31.065 25.889l-14.471 5.988c-.182.079-.383.123-.594.123s-.412-.044-.594-.123L.935 25.889C.387 25.666 0 25.128 0 24.5v-23C0 .671.672 0 1.5 0c.203 0 .397.041.573.114h.001l.002.001c.004.001.009.004.013.005L16 5.876 29.911.12c.004-.001.009-.004.013-.005l.003-.001c.176-.073.37-.114.573-.114.828 0 1.5.671 1.5 1.5v23c0 .628-.387 1.166-.935 1.389zM14.5 8.503L3 3.744v19.753l11.5 4.759V8.503zM29 3.744L17.5 8.503v19.753L29 23.497V3.744zm-9.121 6.89l5.5-2.5C25.568 8.048 25.778 8 26 8c.828 0 1.5.671 1.5 1.5 0 .607-.361 1.129-.879 1.365l-5.5 2.5c-.19.087-.4.135-.621.135-.828 0-1.5-.672-1.5-1.5 0-.607.361-1.13.879-1.366zm0 5.5l5.5-2.5c.189-.086.399-.134.621-.134.828 0 1.5.671 1.5 1.499 0 .608-.361 1.13-.879 1.366l-5.5 2.5c-.19.086-.4.135-.621.135-.828 0-1.5-.672-1.5-1.5 0-.607.361-1.13.879-1.366zm0 5.5l5.5-2.5c.189-.086.399-.134.621-.134.828 0 1.5.671 1.5 1.5 0 .607-.361 1.129-.879 1.365l-5.5 2.5c-.19.087-.4.135-.621.135-.828 0-1.5-.672-1.5-1.5 0-.607.361-1.13.879-1.366zM6 8c.221 0 .431.048.621.134l5.5 2.5c.518.236.879.759.879 1.366 0 .828-.672 1.5-1.5 1.5-.222 0-.432-.048-.621-.135l-5.5-2.5c-.518-.236-.879-.758-.879-1.365C4.5 8.671 5.172 8 6 8zm0 5.5c.221 0 .431.048.621.134l5.5 2.5c.518.236.879.759.879 1.366 0 .828-.672 1.5-1.5 1.5-.222 0-.432-.049-.621-.135l-5.5-2.5c-.518-.236-.879-.758-.879-1.366 0-.828.672-1.499 1.5-1.499zM6 19c.221 0 .431.048.621.134l5.5 2.5c.518.236.879.759.879 1.366 0 .828-.672 1.5-1.5 1.5-.222 0-.432-.048-.621-.135l-5.5-2.5c-.518-.236-.879-.758-.879-1.365 0-.829.672-1.5 1.5-1.5z"/></symbol><symbol id="icon-computer" viewBox="0 0 32 32"><path d="M30 25h-9.5v2.499l2 2.001v.5h-13v-.5l2-2.001V25H2c-.828 0-1.5-.672-1.5-1.501V3.5C.5 2.671 1.172 2 2 2h28c.828 0 1.5.671 1.5 1.5v19.999c0 .829-.672 1.501-1.5 1.501zm-.5-21h-27v17h27V4zM13 11c.414 0 .789.168 1.061.439l.939.939 2.939-2.939C18.211 9.167 18.586 9 19 9c.828 0 1.5.671 1.5 1.5 0 .414-.168.789-.439 1.061l-4 4c-.272.271-.647.439-1.061.439s-.789-.168-1.061-.439l-2-2.001c-.271-.271-.439-.646-.439-1.06 0-.829.672-1.5 1.5-1.5z"/></symbol><symbol id="icon-facebook" viewBox="0 0 32 32"><path d="M22.879.245v5.072s-3.738-.373-4.674 1.06c-.512.783-.208 3.077-.254 4.724h4.959c-.418 1.925-.719 3.23-1.028 4.896h-3.958v15.759h-6.87c.001-4.858-.001-10.526 0-15.697H8.131v-4.958h2.891c.148-3.626.203-7.217 2.005-9.046C15.05-.002 16.981.246 22.879.246z"/></symbol><symbol id="icon-home" viewBox="0 0 32 32"><path d="M32 17c0 .828-.672 1.499-1.5 1.499-.395 0-.752-.155-1.02-.405l-.003.004L16 4.622 2.553 18.068c-.271.267-.643.431-1.053.431-.828 0-1.5-.671-1.5-1.499 0-.425.177-.808.461-1.081L14.919 1.46C15.192 1.177 15.575 1 16 1h.001c.026 0 .052 0 .079.002.004 0 .008.001.012.001.023.001.045.003.068.005.001 0 .002 0 .004.001.367.04.694.212.933.468l.001-.001L23 7.378V6c0-.829.671-1.5 1.5-1.5.828 0 1.5.671 1.5 1.5v4.378l5.598 5.598-.004.004c.25.268.406.625.406 1.02zm-3 2.5V30c0 .828-.672 1.5-1.5 1.5h-3v-12h-6v12h-14c-.828 0-1.5-.672-1.5-1.5V19.5l13-13 13 13zm-15.5 0h-6v6h6v-6z"/></symbol><symbol id="icon-image" viewBox="0 0 32 32"><path d="M30.5 32h-29C.671 32 0 31.328 0 30.5v-29C0 .671.671 0 1.5 0h29c.828 0 1.5.671 1.5 1.5v29c0 .828-.672 1.5-1.5 1.5zM29 3H3v26h26V3zM6.5 4.5H12c.828 0 1.5.671 1.5 1.5s-.672 1.5-1.5 1.5H7.5V12c0 .828-.672 1.5-1.5 1.5s-1.5-.672-1.5-1.5V4.5h2zM4.5 20c0-.829.672-1.501 1.5-1.501s1.5.672 1.5 1.501v4.499l4.5.001c.828 0 1.5.671 1.5 1.5 0 .828-.672 1.5-1.5 1.5H4.5V20zM20 4.5h7.5V12c0 .828-.672 1.5-1.5 1.5s-1.5-.672-1.5-1.5V7.5H20c-.828 0-1.5-.672-1.5-1.5s.672-1.5 1.5-1.5zm0 20v-.001h4.5V20c0-.829.672-1.501 1.5-1.501s1.5.672 1.5 1.501v7.5H20c-.828 0-1.5-.672-1.5-1.5 0-.829.672-1.5 1.5-1.5z"/></symbol><symbol id="icon-instagram" viewBox="0 0 32 32"><path d="M27.938 31.754H4.307c-2.175 0-3.938-1.764-3.938-3.94V4.184c0-2.176 1.764-3.94 3.938-3.94h23.631c2.175 0 3.938 1.764 3.938 3.94v23.63c0 2.176-1.764 3.94-3.938 3.94zM16.123 9.894c-2.457 0-4.567 1.455-5.536 3.545h-.006c-.01.022-.017.046-.027.068-.058.129-.108.262-.158.395-.023.065-.049.128-.07.192-.046.138-.082.277-.117.418-.017.065-.037.13-.052.197-.032.149-.054.3-.075.453-.009.062-.021.122-.028.185-.022.214-.036.432-.036.654 0 3.371 2.734 6.103 6.105 6.103s6.105-2.732 6.105-6.103c0-.222-.014-.439-.036-.654-.007-.063-.02-.123-.028-.185-.021-.153-.043-.304-.075-.453-.015-.066-.034-.132-.052-.197-.034-.142-.071-.281-.117-.418-.021-.064-.047-.127-.07-.192-.049-.133-.1-.266-.158-.395-.01-.022-.017-.046-.027-.068h-.006c-.969-2.09-3.079-3.545-5.536-3.545zm12.209-4.529c0-.87-.705-1.574-1.575-1.574h-3.151c-.87 0-1.575.704-1.575 1.574v3.152c0 .87.705 1.575 1.575 1.575h3.151c.87 0 1.575-.705 1.575-1.575V5.365zm0 8.074h-2.905c.224.816.345 1.675.345 2.561 0 5.329-4.32 9.648-9.649 9.648S6.474 21.329 6.474 16c0-.886.121-1.745.345-2.561H3.914v13.194c0 .871.705 1.577 1.575 1.577h21.268c.87 0 1.575-.705 1.575-1.577V13.439z"/></symbol><symbol id="icon-linegraph" viewBox="0 0 32 32"><path d="M30.5 32h-29C.672 32 0 31.328 0 30.5V1.499C0 .672.672 0 1.5 0h29c.828 0 1.5.672 1.5 1.499V30.5c0 .828-.672 1.5-1.5 1.5zM29 3H3v26h26V3zM5.215 16.239v-.002l4-2.498c.229-.141.497-.222.785-.222.311 0 .6.095.84.257l.006-.008 6.631 4.42 7.638-5.391c.248-.182.554-.29.885-.29.828 0 1.5.672 1.5 1.5 0 .5-.245.943-.622 1.216h.001l-8.501 6c-.246.179-.55.284-.878.284-.321 0-.618-.101-.861-.272l-6.657-4.438-3.135 1.96c-.241.165-.533.262-.847.262-.828 0-1.5-.672-1.5-1.5 0-.541.286-1.014.715-1.278z"/></symbol><symbol id="icon-pinterest" viewBox="0 0 32 32"><path d="M14.217 20.743c-.257 1.025-.517 2.1-.785 3.151-.265 1.036-.498 2.087-.884 3.04-.639 1.577-1.45 3.1-2.514 4.334-.708.821-.558.494-.77.449-.162-.034-.176-.193-.208-.425-.174-1.253-.055-2.702.009-4.11.074-1.605.411-2.939.725-4.272.596-2.54 1.164-5.03 1.766-7.586.039-.17.148-.45.111-.548-.273-.71-.45-1.348-.528-2.094-.09-.855-.021-1.654.171-2.391.341-1.302 1.124-2.455 2.331-2.878.768-.266 1.618-.145 2.135.162.532.319.897.821 1.067 1.534.182.757.048 1.663-.098 2.327-.329 1.5-.761 2.626-1.153 4.074-.194.718-.415 1.455-.233 2.23.167.711.538 1.201 1.042 1.569.524.382 1.145.59 2 .56 1.511-.053 2.561-1.019 3.263-1.93 1.124-1.458 1.803-3.426 2.062-5.767.082-.756.144-1.623.086-2.479-.108-1.58-.602-2.852-1.387-3.836-.746-.939-1.804-1.685-3.092-2.106-1.276-.416-3.042-.555-4.612-.287-2.853.489-4.864 2.11-6.049 4.348-.62 1.172-1.03 2.519-1.03 4.197 0 1.294.319 2.295.834 3.077.164.247.404.452.564.735.228.401-.034.998-.146 1.433-.135.523-.15 1.246-.761 1.258-.254.005-.571-.18-.785-.299-1.606-.887-2.581-2.502-2.981-4.596-.244-1.273-.242-2.756 0-3.985.234-1.19.67-2.287 1.153-3.177 1.002-1.85 2.47-3.329 4.257-4.385C11.151 1.258 12.7.688 14.586.413c.625-.091 1.273-.129 1.975-.162 2.053-.096 3.919.369 5.324.997 1.483.663 2.667 1.546 3.668 2.641 1.031 1.126 1.782 2.436 2.257 4.073.249.852.49 1.762.49 2.815 0 1.056-.223 1.985-.379 2.914-.583 3.481-2.239 6.327-4.724 7.948-.602.391-1.33.754-2.159.996-.821.239-1.758.418-2.761.348-.974-.066-1.771-.331-2.441-.71-.665-.375-1.223-.836-1.62-1.531z"/></symbol><symbol id="icon-search" viewBox="0 0 32 32"><path d="M30.786 26.636c.53.53.859 1.264.859 2.075 0 1.62-1.314 2.933-2.933 2.933-.811 0-1.543-.329-2.075-.86l-8.597-8.596c-1.746 1.031-3.776 1.634-5.95 1.634-6.48 0-11.733-5.253-11.733-11.733S5.61.356 12.09.356s11.733 5.253 11.733 11.733c0 2.174-.603 4.204-1.634 5.95l8.597 8.597zM12.089 3.287c-4.86 0-8.8 3.941-8.8 8.802s3.94 8.8 8.8 8.8c4.86 0 8.8-3.94 8.8-8.8s-3.94-8.802-8.8-8.802z"/></symbol><symbol id="icon-twitter" viewBox="0 0 32 32"><path d="M21.554 3.201c2.503-.044 3.836.868 5.109 2.027 1.081-.092 2.485-.695 3.312-1.116.267-.145.535-.293.804-.439-.473 1.276-1.113 2.276-2.097 3.035-.219.167-.436.395-.71.502v.016c1.403-.014 2.56-.647 3.659-.991v.016c-.577.917-1.359 1.849-2.192 2.516-.336.267-.673.534-1.009.801.018 1.486-.022 2.903-.299 4.151-1.615 7.255-5.893 12.181-12.663 14.292-2.432.757-6.361 1.068-9.147.377-1.381-.342-2.629-.73-3.799-1.242-.651-.284-1.254-.592-1.83-.944-.19-.114-.378-.23-.567-.345.628.018 1.364.192 2.065.078.636-.102 1.259-.075 1.846-.203 1.462-.321 2.761-.746 3.878-1.401.543-.318 1.366-.689 1.751-1.147-.726.012-1.385-.156-1.924-.346-2.091-.738-3.308-2.096-4.101-4.135.634.07 2.459.235 2.886-.126-.798-.044-1.564-.506-2.113-.849-1.682-1.052-3.054-2.817-3.044-5.534.222.105.442.209.662.314.423.178.853.273 1.356.378.213.044.639.169.884.078h-.032c-.325-.378-.855-.63-1.183-1.038-1.079-1.34-2.09-3.404-1.451-5.863.162-.624.42-1.174.694-1.682.011.005.021.01.032.015.126.263.406.457.583.677.551.683 1.231 1.297 1.924 1.839 2.361 1.846 4.486 2.981 7.9 3.82.866.214 1.867.377 2.902.378-.29-.846-.197-2.215.031-3.034.576-2.06 1.825-3.543 3.659-4.34.438-.19.924-.329 1.435-.441.263-.031.526-.063.789-.094z"/></symbol></defs></svg>